<svg width="93" height="35" viewBox="0 0 93 35" fill="none" xmlns="http://www.w3.org/2000/svg">
<g id="logo">
<g id="wi-day-sunny">
<path id="Vector" d="M67 15.9878C67 15.6943 67.0978 15.4374 67.3057 15.2295C67.5136 15.0339 67.7705 14.936 68.0395 14.936H70.5343C70.8156 14.936 71.048 15.0339 71.2437 15.2418C71.4271 15.4497 71.5249 15.6943 71.5249 15.9878C71.5249 16.2813 71.4393 16.5259 71.2559 16.7338C71.0724 16.9417 70.8278 17.0395 70.5466 17.0395H68.0517C67.7705 17.0395 67.5259 16.9417 67.318 16.7338C67.1101 16.5259 67 16.2813 67 15.9878ZM70.4976 24.4628C70.4976 24.1816 70.5955 23.937 70.7789 23.7168L72.5767 21.968C72.7601 21.7723 73.0047 21.6867 73.2982 21.6867C73.5917 21.6867 73.8363 21.7846 74.032 21.968C74.2277 22.1515 74.3255 22.3838 74.3255 22.6651C74.3255 22.9586 74.2277 23.2277 74.032 23.4478L72.2954 25.1844C71.794 25.5757 71.2926 25.5757 70.7912 25.1844C70.5955 24.9887 70.4976 24.7441 70.4976 24.4628ZM70.4976 7.53716C70.4976 7.25588 70.5955 7.01129 70.7789 6.79116C71.0235 6.58325 71.2803 6.48542 71.5616 6.48542C71.8307 6.48542 72.0753 6.58326 72.2832 6.77893L74.032 8.57667C74.2277 8.76011 74.3255 9.0047 74.3255 9.29821C74.3255 9.59172 74.2277 9.83631 74.032 10.032C73.8363 10.2277 73.5917 10.3255 73.2982 10.3255C73.0047 10.3255 72.7601 10.2277 72.5767 10.032L70.7912 8.28316C70.5955 8.08749 70.4976 7.83067 70.4976 7.53716ZM73.6162 15.9878C73.6162 14.8504 73.8975 13.7865 74.4722 12.8081C75.047 11.8297 75.8175 11.047 76.8081 10.4722C77.7987 9.89746 78.8504 9.61618 79.9878 9.61618C80.8438 9.61618 81.6632 9.78739 82.4581 10.1298C83.2408 10.4722 83.9257 10.9247 84.4882 11.4995C85.063 12.0743 85.5155 12.7469 85.8457 13.5296C86.1759 14.3123 86.3471 15.1439 86.3471 16C86.3471 17.1496 86.0659 18.2135 85.4911 19.1919C84.9163 20.1703 84.1458 20.9407 83.1674 21.5155C82.1891 22.0903 81.1251 22.3716 79.9755 22.3716C78.826 22.3716 77.762 22.0903 76.7836 21.5155C75.8053 20.9407 75.0348 20.1703 74.46 19.1919C73.9097 18.2013 73.6162 17.1373 73.6162 15.9878ZM75.6952 15.9878C75.6952 17.1863 76.111 18.2013 76.9548 19.0452C77.7865 19.889 78.8015 20.317 80 20.317C81.1985 20.317 82.2135 19.889 83.0574 19.0452C83.9012 18.2013 84.3293 17.1863 84.3293 15.9878C84.3293 14.8137 83.9012 13.8109 83.0574 12.9671C82.2135 12.1355 81.1985 11.7197 80 11.7197C78.8137 11.7197 77.7987 12.1355 76.9671 12.9671C76.111 13.8109 75.6952 14.8137 75.6952 15.9878ZM78.9483 25.5024C78.9483 25.2088 79.0461 24.9643 79.254 24.7686C79.4619 24.5729 79.7065 24.4751 79.9878 24.4751C80.2813 24.4751 80.5381 24.5729 80.7338 24.7686C80.9294 24.9643 81.0273 25.2088 81.0273 25.5024V27.936C81.0273 28.2295 80.9294 28.4864 80.7215 28.6943C80.5136 28.9022 80.269 29 79.9878 29C79.7065 29 79.4497 28.9022 79.254 28.6943C79.0461 28.4864 78.9483 28.2295 78.9483 27.936V25.5024ZM78.9483 6.54657V4.05174C78.9483 3.77046 79.0461 3.52587 79.254 3.31797C79.4619 3.11007 79.7065 3 80 3C80.2935 3 80.5259 3.09784 80.7338 3.30574C80.9417 3.51364 81.0395 3.75823 81.0395 4.03951V6.54657C81.0395 6.82785 80.9417 7.06021 80.7338 7.25588C80.5259 7.45155 80.2813 7.53716 80 7.53716C79.7187 7.53716 79.4619 7.43932 79.2662 7.25588C79.0706 7.07244 78.9483 6.82785 78.9483 6.54657ZM85.699 22.6651C85.699 22.3838 85.7968 22.1515 85.9802 21.9802C86.1637 21.7846 86.396 21.699 86.6651 21.699C86.9586 21.699 87.2032 21.7968 87.3989 21.9802L89.1844 23.7291C89.3801 23.937 89.4779 24.1938 89.4779 24.4751C89.4779 24.7563 89.3801 25.0009 89.1844 25.1966C88.6952 25.5757 88.206 25.5757 87.7168 25.1966L85.9802 23.46C85.7968 23.2399 85.699 22.9831 85.699 22.6651ZM85.699 9.31044C85.699 9.0047 85.7968 8.76011 85.9802 8.5889L87.7168 6.79116C87.9247 6.59548 88.1693 6.49765 88.4384 6.49765C88.7319 6.49765 88.9765 6.59548 89.1722 6.80339C89.3801 7.01129 89.4779 7.25588 89.4779 7.53716C89.4779 7.8429 89.3801 8.09972 89.1844 8.29539L87.3989 10.0442C87.1787 10.2399 86.9341 10.3377 86.6651 10.3377C86.3838 10.3377 86.1637 10.2399 85.9802 10.0442C85.7968 9.84854 85.699 9.60395 85.699 9.31044ZM88.4628 15.9878C88.4628 15.6943 88.5607 15.4497 88.7563 15.2295C88.952 15.0339 89.1844 14.936 89.4534 14.936H91.9238C92.2051 14.936 92.4497 15.0461 92.6576 15.254C92.8655 15.4619 92.9755 15.7065 92.9755 15.9878C92.9755 16.269 92.8655 16.5136 92.6576 16.7215C92.4497 16.9294 92.2051 17.0273 91.9238 17.0273H89.4534C89.1722 17.0273 88.9276 16.9294 88.7441 16.7215C88.5607 16.5136 88.4628 16.2813 88.4628 15.9878Z" fill="#FFE390"/>
</g>
<rect id="Rectangle 2" x="63" y="14" width="19" height="19" fill="#48355A"/>
<path id="weather" d="M15.752 18.044L15.796 18.22C15.8107 18.352 15.8327 18.5207 15.862 18.726C15.8913 18.9313 15.9133 19.1733 15.928 19.452C15.9573 19.7307 15.972 20.0093 15.972 20.288C15.972 21.916 15.8767 23.2947 15.686 24.424C15.51 25.5533 15.2093 26.47 14.784 27.174C14.3733 27.8633 13.8233 28.3693 13.134 28.692C12.4447 29 11.594 29.154 10.582 29.154C9.15933 29.154 8.184 28.5673 7.656 27.394C7.392 27.9953 7.02533 28.4427 6.556 28.736C6.10133 29.0147 5.42667 29.154 4.532 29.154C3.388 29.154 2.56667 28.824 2.068 28.164C1.56933 27.504 1.32 26.5873 1.32 25.414V18.044H3.828V25.216C3.828 25.832 3.938 26.3453 4.158 26.756C4.378 27.152 4.752 27.35 5.28 27.35C5.95467 27.35 6.47533 27.02 6.842 26.36C7.20867 25.7 7.392 24.6073 7.392 23.082V18.044H9.878C9.86333 19.144 9.856 20.1633 9.856 21.102C9.856 21.5127 9.84867 21.9233 9.834 22.334C9.834 22.7447 9.834 23.1333 9.834 23.5C9.834 23.8667 9.834 24.204 9.834 24.512C9.834 24.8053 9.834 25.04 9.834 25.216C9.834 25.832 9.95133 26.3453 10.186 26.756C10.4207 27.152 10.802 27.35 11.33 27.35C11.8433 27.35 12.2393 27.152 12.518 26.756C12.8113 26.36 13.024 25.8467 13.156 25.216C13.288 24.5707 13.3687 23.8447 13.398 23.038C13.4273 22.2167 13.442 21.388 13.442 20.552C13.442 20.2147 13.4273 19.8993 13.398 19.606C13.3833 19.298 13.354 19.0267 13.31 18.792C13.2807 18.5573 13.2587 18.374 13.244 18.242L13.2 18.044H15.752ZM17.7427 23.786C17.7427 22.8033 17.8747 21.938 18.1387 21.19C18.4173 20.442 18.7913 19.8187 19.2607 19.32C19.7447 18.8067 20.3093 18.4253 20.9547 18.176C21.6 17.912 22.2967 17.78 23.0447 17.78C23.7047 17.78 24.262 17.8607 24.7167 18.022C25.186 18.1833 25.5673 18.4033 25.8607 18.682C26.154 18.9607 26.3667 19.2907 26.4987 19.672C26.6453 20.0533 26.7187 20.464 26.7187 20.904C26.7187 21.432 26.572 21.938 26.2787 22.422C25.9853 22.8913 25.56 23.3093 25.0027 23.676C24.46 24.028 23.8 24.314 23.0227 24.534C22.2453 24.7393 21.3727 24.8493 20.4047 24.864C20.4487 25.2013 20.5147 25.524 20.6027 25.832C20.7053 26.1253 20.8447 26.3893 21.0207 26.624C21.2113 26.844 21.4533 27.02 21.7467 27.152C22.04 27.284 22.4067 27.35 22.8467 27.35C23.1693 27.35 23.514 27.3133 23.8807 27.24C24.2473 27.1667 24.5847 27.0787 24.8927 26.976C25.2593 26.8587 25.6187 26.7267 25.9707 26.58L26.6307 28.142C26.2493 28.3327 25.8387 28.5013 25.3987 28.648C25.0173 28.78 24.5773 28.8973 24.0787 29C23.58 29.1027 23.052 29.154 22.4947 29.154C21.644 29.154 20.918 29.0293 20.3167 28.78C19.7153 28.516 19.224 28.1493 18.8427 27.68C18.4613 27.2107 18.1827 26.646 18.0067 25.986C17.8307 25.326 17.7427 24.5927 17.7427 23.786ZM22.8467 19.496C22.3627 19.496 21.9593 19.6133 21.6367 19.848C21.3287 20.068 21.0793 20.3613 20.8887 20.728C20.698 21.08 20.5587 21.4833 20.4707 21.938C20.3973 22.378 20.3533 22.8253 20.3387 23.28C21.0427 23.2507 21.6367 23.1627 22.1207 23.016C22.6193 22.8547 23.0227 22.664 23.3307 22.444C23.6387 22.2093 23.8587 21.96 23.9907 21.696C24.1373 21.432 24.2107 21.168 24.2107 20.904C24.2107 20.4787 24.086 20.1413 23.8367 19.892C23.5873 19.628 23.2573 19.496 22.8467 19.496ZM37.6451 23.698C37.6451 24.578 37.6964 25.3187 37.7991 25.92C37.9164 26.5067 38.0411 26.9833 38.1731 27.35C38.3344 27.79 38.5104 28.1347 38.7011 28.384L36.7431 29.176C36.5524 28.9853 36.3764 28.758 36.2151 28.494C36.0831 28.2593 35.9584 27.9807 35.8411 27.658C35.7238 27.3207 35.6504 26.9247 35.6211 26.47C35.3718 27.35 34.9684 28.0173 34.4111 28.472C33.8684 28.912 33.1278 29.132 32.1891 29.132C31.4998 29.132 30.8984 29.0073 30.3851 28.758C29.8864 28.494 29.4684 28.1273 29.1311 27.658C28.7938 27.174 28.5444 26.5947 28.3831 25.92C28.2218 25.2453 28.1411 24.4973 28.1411 23.676C28.1411 22.84 28.2658 22.07 28.5151 21.366C28.7791 20.6473 29.1384 20.0313 29.5931 19.518C30.0624 19.0047 30.6198 18.6013 31.2651 18.308C31.9104 18.0147 32.6218 17.868 33.3991 17.868C33.8391 17.868 34.2938 17.9047 34.7631 17.978C35.2471 18.0367 35.6944 18.1027 36.1051 18.176C36.5158 18.2493 36.8604 18.3227 37.1391 18.396C37.4324 18.4547 37.6011 18.4913 37.6451 18.506V23.698ZM32.6071 27.372C32.9738 27.372 33.3111 27.2473 33.6191 26.998C33.9271 26.7487 34.1911 26.426 34.4111 26.03C34.6458 25.6193 34.8218 25.1573 34.9391 24.644C35.0711 24.116 35.1371 23.5807 35.1371 23.038V19.87C34.9904 19.826 34.7704 19.7747 34.4771 19.716C34.1838 19.6573 33.9198 19.628 33.6851 19.628C33.1278 19.628 32.6658 19.7233 32.2991 19.914C31.9471 20.1047 31.6611 20.3687 31.4411 20.706C31.2211 21.0433 31.0671 21.4467 30.9791 21.916C30.8911 22.3853 30.8471 22.8987 30.8471 23.456C30.8471 23.9693 30.8618 24.4607 30.8911 24.93C30.9204 25.3993 30.9938 25.8173 31.1111 26.184C31.2431 26.5507 31.4264 26.844 31.6611 27.064C31.8958 27.2693 32.2111 27.372 32.6071 27.372ZM39.386 18.044H41.366L41.806 15.47L43.874 15.008V18.044H46.58L46.272 19.826H43.874V26.338C43.874 26.7193 43.9767 26.9687 44.182 27.086C44.3873 27.1887 44.6147 27.24 44.864 27.24C45.0693 27.24 45.2747 27.2253 45.48 27.196C45.6853 27.1667 45.8687 27.13 46.03 27.086C46.2207 27.042 46.404 26.9907 46.58 26.932L46.998 28.582L46.8 28.648C46.668 28.7067 46.47 28.7727 46.206 28.846C45.9567 28.9047 45.656 28.956 45.304 29C44.9667 29.0587 44.5927 29.088 44.182 29.088C43.7713 29.088 43.39 29.044 43.038 28.956C42.7007 28.868 42.4073 28.7287 42.158 28.538C41.9087 28.3327 41.7107 28.076 41.564 27.768C41.432 27.46 41.366 27.0787 41.366 26.624V19.826H39.386V18.044ZM51.0532 19.452C51.4786 18.8947 51.9846 18.4913 52.5712 18.242C53.1726 17.9927 53.8032 17.868 54.4632 17.868C55.5926 17.868 56.4066 18.2127 56.9052 18.902C57.4186 19.5767 57.6752 20.4933 57.6752 21.652V29H55.1672V21.828C55.1672 21.212 55.0572 20.728 54.8372 20.376C54.6172 20.0093 54.2432 19.826 53.7152 19.826C53.4072 19.826 53.0919 19.9067 52.7692 20.068C52.4612 20.2293 52.1752 20.464 51.9112 20.772C51.6619 21.0653 51.4566 21.4173 51.2952 21.828C51.1339 22.2387 51.0532 22.6933 51.0532 23.192V29H48.5452V13.49L51.0532 13.05V19.452ZM59.7661 23.786C59.7661 22.8033 59.8981 21.938 60.1621 21.19C60.4408 20.442 60.8148 19.8187 61.2841 19.32C61.7681 18.8067 62.3328 18.4253 62.9781 18.176C63.6234 17.912 64.3201 17.78 65.0681 17.78C65.7281 17.78 66.2854 17.8607 66.7401 18.022C67.2094 18.1833 67.5908 18.4033 67.8841 18.682C68.1774 18.9607 68.3901 19.2907 68.5221 19.672C68.6688 20.0533 68.7421 20.464 68.7421 20.904C68.7421 21.432 68.5954 21.938 68.3021 22.422C68.0088 22.8913 67.5834 23.3093 67.0261 23.676C66.4834 24.028 65.8234 24.314 65.0461 24.534C64.2688 24.7393 63.3961 24.8493 62.4281 24.864C62.4721 25.2013 62.5381 25.524 62.6261 25.832C62.7288 26.1253 62.8681 26.3893 63.0441 26.624C63.2348 26.844 63.4768 27.02 63.7701 27.152C64.0634 27.284 64.4301 27.35 64.8701 27.35C65.1928 27.35 65.5374 27.3133 65.9041 27.24C66.2708 27.1667 66.6081 27.0787 66.9161 26.976C67.2828 26.8587 67.6421 26.7267 67.9941 26.58L68.6541 28.142C68.2728 28.3327 67.8621 28.5013 67.4221 28.648C67.0408 28.78 66.6008 28.8973 66.1021 29C65.6034 29.1027 65.0754 29.154 64.5181 29.154C63.6674 29.154 62.9414 29.0293 62.3401 28.78C61.7388 28.516 61.2474 28.1493 60.8661 27.68C60.4848 27.2107 60.2061 26.646 60.0301 25.986C59.8541 25.326 59.7661 24.5927 59.7661 23.786ZM64.8701 19.496C64.3861 19.496 63.9828 19.6133 63.6601 19.848C63.3521 20.068 63.1028 20.3613 62.9121 20.728C62.7214 21.08 62.5821 21.4833 62.4941 21.938C62.4208 22.378 62.3768 22.8253 62.3621 23.28C63.0661 23.2507 63.6601 23.1627 64.1441 23.016C64.6428 22.8547 65.0461 22.664 65.3541 22.444C65.6621 22.2093 65.8821 21.96 66.0141 21.696C66.1608 21.432 66.2341 21.168 66.2341 20.904C66.2341 20.4787 66.1094 20.1413 65.8601 19.892C65.6108 19.628 65.2808 19.496 64.8701 19.496ZM75.7305 20.332C75.4665 20.332 75.2025 20.398 74.9385 20.53C74.6745 20.662 74.4399 20.8453 74.2345 21.08C74.0292 21.3 73.8605 21.5713 73.7285 21.894C73.5965 22.2167 73.5305 22.576 73.5305 22.972V29H71.0225V23.456C71.0225 22.576 70.9639 21.8427 70.8465 21.256C70.7292 20.6547 70.6045 20.1707 70.4725 19.804C70.3112 19.3787 70.1352 19.034 69.9445 18.77L71.9245 17.978C72.0565 18.1393 72.1959 18.3373 72.3425 18.572C72.4599 18.7773 72.5772 19.0193 72.6945 19.298C72.8119 19.5767 72.9072 19.9067 72.9805 20.288C73.2739 19.4373 73.6992 18.8287 74.2565 18.462C74.8139 18.0807 75.4445 17.89 76.1485 17.89C76.4859 17.89 76.8012 17.934 77.0945 18.022C77.3879 18.0953 77.5272 18.132 77.5125 18.132L76.8085 20.574C76.8232 20.574 76.7352 20.5373 76.5445 20.464C76.3685 20.376 76.0972 20.332 75.7305 20.332Z" fill="white"/>
<path id="LOOK, IT&#226;&#128;&#153;S THE" d="M0.7 3.23H1.89V9.1H4.42V10H0.7V3.23ZM7.33578 3.14C7.83578 3.14 8.26245 3.22 8.61578 3.38C8.96911 3.54 9.25911 3.76667 9.48578 4.06C9.71911 4.35333 9.88911 4.71333 9.99578 5.14C10.1024 5.56 10.1558 6.03333 10.1558 6.56C10.1558 7.08 10.0958 7.55667 9.97578 7.99C9.86245 8.41667 9.68245 8.78333 9.43578 9.09C9.19578 9.39667 8.88911 9.63667 8.51578 9.81C8.14911 9.97667 7.71245 10.06 7.20578 10.06C6.70578 10.06 6.27578 9.98667 5.91578 9.84C5.56245 9.68667 5.26911 9.46667 5.03578 9.18C4.80911 8.88667 4.64245 8.53333 4.53578 8.12C4.42911 7.70667 4.37578 7.23333 4.37578 6.7C4.37578 6.18 4.43245 5.70333 4.54578 5.27C4.66578 4.83 4.84578 4.45333 5.08578 4.14C5.33245 3.82 5.64245 3.57333 6.01578 3.4C6.38911 3.22667 6.82911 3.14 7.33578 3.14ZM7.19578 4.06C6.90245 4.06 6.65911 4.12667 6.46578 4.26C6.27245 4.38667 6.11578 4.56333 5.99578 4.79C5.87578 5.01667 5.78911 5.28333 5.73578 5.59C5.68911 5.89667 5.66578 6.23 5.66578 6.59C5.66578 6.93 5.68911 7.25333 5.73578 7.56C5.78245 7.86667 5.86578 8.13667 5.98578 8.37C6.11245 8.60333 6.28245 8.79 6.49578 8.93C6.71578 9.07 6.99911 9.14 7.34578 9.14C7.63245 9.14 7.87245 9.07667 8.06578 8.95C8.26578 8.82333 8.42578 8.65 8.54578 8.43C8.66578 8.21 8.74911 7.95 8.79578 7.65C8.84911 7.34333 8.87578 7.01333 8.87578 6.66C8.87578 6.32 8.85245 5.99333 8.80578 5.68C8.75911 5.36667 8.67245 5.09 8.54578 4.85C8.42578 4.61 8.25578 4.42 8.03578 4.28C7.82245 4.13333 7.54245 4.06 7.19578 4.06ZM14.0155 3.14C14.5155 3.14 14.9421 3.22 15.2955 3.38C15.6488 3.54 15.9388 3.76667 16.1655 4.06C16.3988 4.35333 16.5688 4.71333 16.6755 5.14C16.7821 5.56 16.8355 6.03333 16.8355 6.56C16.8355 7.08 16.7755 7.55667 16.6555 7.99C16.5421 8.41667 16.3621 8.78333 16.1155 9.09C15.8755 9.39667 15.5688 9.63667 15.1955 9.81C14.8288 9.97667 14.3921 10.06 13.8855 10.06C13.3855 10.06 12.9555 9.98667 12.5955 9.84C12.2421 9.68667 11.9488 9.46667 11.7155 9.18C11.4888 8.88667 11.3221 8.53333 11.2155 8.12C11.1088 7.70667 11.0555 7.23333 11.0555 6.7C11.0555 6.18 11.1121 5.70333 11.2255 5.27C11.3455 4.83 11.5255 4.45333 11.7655 4.14C12.0121 3.82 12.3221 3.57333 12.6955 3.4C13.0688 3.22667 13.5088 3.14 14.0155 3.14ZM13.8755 4.06C13.5821 4.06 13.3388 4.12667 13.1455 4.26C12.9521 4.38667 12.7955 4.56333 12.6755 4.79C12.5555 5.01667 12.4688 5.28333 12.4155 5.59C12.3688 5.89667 12.3455 6.23 12.3455 6.59C12.3455 6.93 12.3688 7.25333 12.4155 7.56C12.4621 7.86667 12.5455 8.13667 12.6655 8.37C12.7921 8.60333 12.9621 8.79 13.1755 8.93C13.3955 9.07 13.6788 9.14 14.0255 9.14C14.3121 9.14 14.5521 9.07667 14.7455 8.95C14.9455 8.82333 15.1055 8.65 15.2255 8.43C15.3455 8.21 15.4288 7.95 15.4755 7.65C15.5288 7.34333 15.5555 7.01333 15.5555 6.66C15.5555 6.32 15.5321 5.99333 15.4855 5.68C15.4388 5.36667 15.3521 5.09 15.2255 4.85C15.1055 4.61 14.9355 4.42 14.7155 4.28C14.5021 4.13333 14.2221 4.06 13.8755 4.06ZM17.9852 3.23H19.1752V10H17.9852V3.23ZM22.6752 3.23C22.5685 3.73 22.4485 4.15667 22.3152 4.51C22.1885 4.85667 22.0485 5.15333 21.8952 5.4C21.7418 5.64 21.5718 5.84667 21.3852 6.02C21.2052 6.18667 21.0118 6.34 20.8052 6.48L23.2652 10H21.8852L19.3052 6.34V6.27C19.9185 6.04333 20.3918 5.67333 20.7252 5.16C21.0652 4.64 21.3252 3.99667 21.5052 3.23H22.6752ZM24.0634 8.77C24.07 8.76333 24.1234 8.73333 24.2234 8.68C24.3234 8.62 24.49 8.59 24.7234 8.59C24.9567 8.59 25.1267 8.66 25.2334 8.8C25.34 8.94 25.3934 9.11667 25.3934 9.33C25.3934 9.60333 25.3534 9.85 25.2734 10.07C25.2 10.29 25.1 10.49 24.9734 10.67C24.8467 10.85 24.7 11.0067 24.5334 11.14C24.3734 11.2733 24.2034 11.3833 24.0234 11.47L23.5934 10.89C23.8534 10.6967 24.0267 10.5033 24.1134 10.31C24.2067 10.1167 24.2534 9.93 24.2534 9.75C24.2534 9.55667 24.2234 9.37667 24.1634 9.21C24.1034 9.04333 24.07 8.89667 24.0634 8.77ZM29.2449 3.23H30.4349V10H29.2449V3.23ZM35.9528 3.23L35.8028 4.13H34.1228V10H32.9428V4.13H31.2328V3.23H35.9528ZM36.8345 2.94C36.8411 2.93333 36.8945 2.90333 36.9945 2.85C37.0945 2.79 37.2611 2.76 37.4945 2.76C37.7278 2.76 37.8978 2.83 38.0045 2.97C38.1111 3.11 38.1645 3.28667 38.1645 3.5C38.1645 3.77333 38.1245 4.02 38.0445 4.24C37.9711 4.46 37.8711 4.66 37.7445 4.84C37.6178 5.02 37.4711 5.17667 37.3045 5.31C37.1445 5.44333 36.9745 5.55333 36.7945 5.64L36.3645 5.06C36.6245 4.86667 36.7978 4.67333 36.8845 4.48C36.9778 4.28667 37.0245 4.1 37.0245 3.92C37.0245 3.72667 36.9945 3.54667 36.9345 3.38C36.8745 3.21333 36.8411 3.06667 36.8345 2.94ZM41.0191 3.14C41.2525 3.14 41.4758 3.16333 41.6891 3.21C41.9025 3.25 42.0958 3.3 42.2691 3.36C42.4491 3.41333 42.5991 3.47 42.7191 3.53C42.8458 3.59 42.9325 3.63667 42.9791 3.67L42.4891 4.53L42.3591 4.46C42.2725 4.41333 42.1591 4.36 42.0191 4.3C41.8791 4.24 41.7258 4.18667 41.5591 4.14C41.3925 4.09333 41.2325 4.07 41.0791 4.07C40.8391 4.07 40.6291 4.12667 40.4491 4.24C40.2758 4.35333 40.1891 4.53 40.1891 4.77C40.1891 5.07 40.2858 5.31667 40.4791 5.51C40.6725 5.69667 40.9758 5.87 41.3891 6.03C41.6558 6.13667 41.8925 6.25 42.0991 6.37C42.3125 6.48333 42.4925 6.61667 42.6391 6.77C42.7858 6.92333 42.8958 7.1 42.9691 7.3C43.0491 7.5 43.0891 7.74 43.0891 8.02C43.0891 8.27333 43.0391 8.52333 42.9391 8.77C42.8458 9.01667 42.7025 9.23667 42.5091 9.43C42.3225 9.61667 42.0891 9.77 41.8091 9.89C41.5291 10.0033 41.2058 10.06 40.8391 10.06C40.5791 10.06 40.3325 10.0333 40.0991 9.98C39.8658 9.92667 39.6525 9.86667 39.4591 9.8C39.2725 9.72667 39.1091 9.65333 38.9691 9.58C38.8358 9.50667 38.7358 9.45 38.6691 9.41L39.0891 8.49L39.2691 8.59C39.3891 8.65667 39.5358 8.73 39.7091 8.81C39.8825 8.89 40.0658 8.96333 40.2591 9.03C40.4525 9.09667 40.6191 9.13 40.7591 9.13C41.1125 9.13 41.3758 9.04333 41.5491 8.87C41.7225 8.69667 41.8091 8.45333 41.8091 8.14C41.8091 7.99333 41.7858 7.86667 41.7391 7.76C41.6925 7.64667 41.6258 7.55 41.5391 7.47C41.4525 7.39 41.3458 7.32 41.2191 7.26C41.0991 7.19333 40.9625 7.13 40.8091 7.07C40.5091 6.94333 40.2391 6.81667 39.9991 6.69C39.7658 6.56333 39.5658 6.42 39.3991 6.26C39.2325 6.09333 39.1058 5.90667 39.0191 5.7C38.9325 5.48667 38.8891 5.23333 38.8891 4.94C38.8891 4.69333 38.9425 4.46333 39.0491 4.25C39.1558 4.03 39.3025 3.84 39.4891 3.68C39.6758 3.51333 39.8991 3.38333 40.1591 3.29C40.4191 3.19 40.7058 3.14 41.0191 3.14ZM50.8063 3.23L50.6563 4.13H48.9763V10H47.7963V4.13H46.0863V3.23H50.8063ZM55.598 6.92H52.808V10H51.618V3.23H52.808V6.05H55.598V3.23H56.788V10H55.598V6.92ZM58.1902 3.23H62.2102V4.13H59.3802V6.02H61.7102L61.5602 6.93H59.3802V9.1H62.3602V10H58.1902V3.23Z" fill="#E9DBF7" fill-opacity="0.75"/>
</g>
</svg>
